/* XPM */
static char *b2969e63cbc442f2be0b63fcb9678dbfjxGG4qRJV53ibsoz[] = {
/* columns rows colors chars-per-pixel */
"30 41 2 1 ",
"  c None",
". c white",
/* pixels */
".........................     ",
".........................     ",
".........................     ",
".........................     ",
"............................. ",
"............................. ",
"............................. ",
"............................. ",
"                 ............ ",
"                 ............ ",
"                 ............ ",
"                 ............ ",
"                 ............ ",
"                 ............ ",
"                 ............ ",
"                 ............ ",
".........................     ",
".........................     ",
".........................     ",
".........................     ",
"............................. ",
"............................. ",
"............................. ",
"............................. ",
"                 ............ ",
"                 ............ ",
"                 ............ ",
"                 ............ ",
"                 ............ ",
"                 ............ ",
"                 ............ ",
"                 ............ ",
"                 ............ ",
"............................. ",
"............................. ",
"............................. ",
"............................. ",
".........................     ",
".........................     ",
".........................     ",
".........................     "
};
