/* XPM */
static char *_c3d6c684e0e47cbef5fc0b6aaae1e4cxThfe8762soIDFQR[] = {
/* columns rows colors chars-per-pixel */
"30 41 2 1 ",
"  c None",
". c white",
/* pixels */
".............    ............ ",
".............    ............ ",
".............    ............ ",
".............    ............ ",
".............    ............ ",
".............    ............ ",
".............    ............ ",
".............    ............ ",
".............    ............ ",
".............    ............ ",
".............    ............ ",
".............    ............ ",
".............    ............ ",
".............    ............ ",
".............    ............ ",
".............    ............ ",
"............................. ",
"............................. ",
"............................. ",
"............................. ",
"............................. ",
"............................. ",
"............................. ",
"............................. ",
"                 ............ ",
"                 ............ ",
"                 ............ ",
"                 ............ ",
"                 ............ ",
"                 ............ ",
"                 ............ ",
"                 ............ ",
"                 ............ ",
"                 ............ ",
"                 ............ ",
"                 ............ ",
"                 ............ ",
"                 ............ ",
"                 ............ ",
"                 ............ ",
"                 ............ "
};
