/* XPM */
static char *_fb0ff9106414e279f7a4cc33d1716e1f0BCdzpQUhGLzB1w[] = {
/* columns rows colors chars-per-pixel */
"30 41 2 1 ",
"  c None",
". c white",
/* pixels */
"............................. ",
"............................. ",
"............................. ",
"............................. ",
"............................. ",
"............................. ",
"............................. ",
"............................. ",
".............                 ",
".............                 ",
".............                 ",
".............                 ",
".............                 ",
".............                 ",
".............                 ",
".............                 ",
".........................     ",
".........................     ",
".........................     ",
".........................     ",
"............................. ",
"............................. ",
"............................. ",
"............................. ",
"                 ............ ",
"                 ............ ",
"                 ............ ",
"                 ............ ",
"                 ............ ",
"                 ............ ",
"                 ............ ",
"                 ............ ",
"                 ............ ",
"............................. ",
"............................. ",
"............................. ",
"............................. ",
".........................     ",
".........................     ",
".........................     ",
".........................     "
};
