/* XPM */
static char *d84fcd252e7b47f3ac5d041ccc71e4d63svyvbuBtIrGGekm[] = {
/* columns rows colors chars-per-pixel */
"30 41 2 1 ",
"  c None",
". c white",
/* pixels */
"............................. ",
"............................. ",
"............................. ",
"............................. ",
"............................. ",
"............................. ",
"............................. ",
"............................. ",
".............                 ",
".............                 ",
".............                 ",
".............                 ",
".............                 ",
".............                 ",
".............                 ",
".............                 ",
"............................. ",
"............................. ",
"............................. ",
"............................. ",
"............................. ",
"............................. ",
"............................. ",
"............................. ",
".............    ............ ",
".............    ............ ",
".............    ............ ",
".............    ............ ",
".............    ............ ",
".............    ............ ",
".............    ............ ",
".............    ............ ",
".............    ............ ",
"............................. ",
"............................. ",
"............................. ",
"............................. ",
"............................. ",
"............................. ",
"............................. ",
"............................. "
};
