/* XPM */
static char *_abd08dd88b241409c2ee6dcf8bca904nWbFKpq6oatsFwBj[] = {
/* columns rows colors chars-per-pixel */
"30 41 2 1 ",
"  c None",
". c white",
/* pixels */
"............................. ",
"............................. ",
"............................. ",
"............................. ",
"............................. ",
"............................. ",
"............................. ",
"............................. ",
"                 ............ ",
"                 ............ ",
"                 ............ ",
"                 ............ ",
"                 ............ ",
"                 ............ ",
"                 ............ ",
"                 ............ ",
"             ............     ",
"             ............     ",
"             ............     ",
"             ............     ",
"         ............         ",
"        .............         ",
"        .............         ",
"        .............         ",
"        .............         ",
"        .............         ",
"        .............         ",
"        .............         ",
"        .............         ",
"        .............         ",
"        .............         ",
"        .............         ",
"        .............         ",
"        .............         ",
"        .............         ",
"        .............         ",
"        .............         ",
"        .............         ",
"        .............         ",
"        .............         ",
"        .............         "
};
