/* XPM */
static char *be46e461ca4d4ed0b69baf6af8d91ae5cs2oinMmqxx03VrE[] = {
/* columns rows colors chars-per-pixel */
"30 41 2 1 ",
"  c None",
". c white",
/* pixels */
"............................. ",
"............................. ",
"............................. ",
"............................. ",
"............................. ",
"............................. ",
"............................. ",
"............................. ",
".............    ............ ",
".............    ............ ",
".............    ............ ",
".............    ............ ",
".............    ............ ",
".............    ............ ",
".............    ............ ",
".............    ............ ",
"    .....................     ",
"    .....................     ",
"    .....................     ",
"    .....................     ",
"............................. ",
"............................. ",
"............................. ",
"............................. ",
".............    ............ ",
".............    ............ ",
".............    ............ ",
".............    ............ ",
".............    ............ ",
".............    ............ ",
".............    ............ ",
".............    ............ ",
".............    ............ ",
"............................. ",
"............................. ",
"............................. ",
"............................. ",
"............................. ",
"............................. ",
"............................. ",
"............................. "
};
