/* XPM */
static char *_d63931a6d0c4ce0d16a5ec87018923dnZERSUxMl0cmIBG8[] = {
/* columns rows colors chars-per-pixel */
"30 41 2 1 ",
"  c None",
". c white",
/* pixels */
"............................. ",
"............................. ",
"............................. ",
"............................. ",
"............................. ",
"............................. ",
"............................. ",
"............................. ",
".............    ............ ",
".............    ............ ",
".............    ............ ",
".............    ............ ",
".............    ............ ",
".............    ............ ",
".............    ............ ",
".............    ............ ",
"............................. ",
"............................. ",
"............................. ",
"............................. ",
"............................. ",
"............................. ",
"............................. ",
"............................. ",
"                 ............ ",
"                 ............ ",
"                 ............ ",
"                 ............ ",
"                 ............ ",
"                 ............ ",
"                 ............ ",
"                 ............ ",
"                 ............ ",
"............................. ",
"............................. ",
"............................. ",
"............................. ",
"............................. ",
"............................. ",
"............................. ",
"............................. "
};
