/* XPM */
static char *_58d092c3913409dba10f482217be71cu0xRxfahgcFOCiWU[] = {
/* columns rows colors chars-per-pixel */
"32 32 4 1 ",
"  c gray13",
". c gray26",
"X c gray38",
"o c gray46",
/* pixels */
"................oooo    XXXXXXXX",
"................oooo    XXXXXXXX",
"................oooo    XXXXXXXX",
"................oooo    XXXXXXXX",
"ooooooooXXXXXXXXXXXXXXXXXXXXoooo",
"ooooooooXXXXXXXXXXXXXXXXXXXXoooo",
"ooooooooXXXXXXXXXXXXXXXXXXXXoooo",
"ooooooooXXXXXXXXXXXXXXXXXXXXoooo",
"XXXX    oooooooooooo............",
"XXXX    oooooooooooo............",
"XXXX    oooooooooooo............",
"XXXX    oooooooooooo............",
"................XXXXXXXX    XXXX",
"................XXXXXXXX    XXXX",
"................XXXXXXXX    XXXX",
"................XXXXXXXX    XXXX",
"XXXXXXXXXXXXXXXXXXXXoooooooo....",
"XXXXXXXXXXXXXXXXXXXXoooooooo....",
"XXXXXXXXXXXXXXXXXXXXoooooooo....",
"XXXXXXXXXXXXXXXXXXXXoooooooo....",
"XXXX    ............XXXXXXXXXXXX",
"XXXX    ............XXXXXXXXXXXX",
"XXXX    ............XXXXXXXXXXXX",
"XXXX    ............XXXXXXXXXXXX",
"ooooooooXXXX    XXXXoooo........",
"ooooooooXXXX    XXXXoooo........",
"ooooooooXXXX    XXXXoooo........",
"ooooooooXXXX    XXXXoooo........",
"............ooooooooXXXXXXXXXXXX",
"............ooooooooXXXXXXXXXXXX",
"............ooooooooXXXXXXXXXXXX",
"............ooooooooXXXXXXXXXXXX"
};
