/* XPM */
static char *_76824875fd64a5bc901e2e533722385XXDdWW8IthjZjxCi[] = {
/* columns rows colors chars-per-pixel */
"32 32 14 1 ",
"  c black",
". c gray14",
"X c #006B00",
"o c #007200",
"O c #204D20",
"+ c #307430",
"@ c #009800",
"# c #00B600",
"$ c #3B913B",
"% c #4FC14F",
"& c #5FE85F",
"* c #69FF69",
"= c #909090",
"- c #BBBBBB",
/* pixels */
"####oooo@@@@====----****$$$$oooo",
"####oooo@@@@====----****$$$$oooo",
"####oooo@@@@====----****$$$$oooo",
"####oooo@@@@====----****$$$$oooo",
"oooo####@@@@$$$$XXXX%%%%++++====",
"oooo####@@@@$$$$XXXX%%%%++++====",
"oooo####@@@@$$$$XXXX%%%%++++====",
"oooo####@@@@$$$$XXXX%%%%++++====",
"@@@@........&&&&%%%%........----",
"@@@@........&&&&%%%%........----",
"@@@@........&&&&%%%%........----",
"@@@@........&&&&%%%%........----",
"@@@@....    $$$$OOOO    ....$$$$",
"@@@@....    $$$$OOOO    ....$$$$",
"@@@@....    $$$$OOOO    ....$$$$",
"@@@@....    $$$$OOOO    ....$$$$",
"$$$$####&&&&........----XXXX####",
"$$$$####&&&&........----XXXX####",
"$$$$####&&&&........----XXXX####",
"$$$$####&&&&........----XXXX####",
"&&&&OOOO....        ....####----",
"&&&&OOOO....        ....####----",
"&&&&OOOO....        ....####----",
"&&&&OOOO....        ....####----",
"----$$$$                $$$$XXXX",
"----$$$$                $$$$XXXX",
"----$$$$                $$$$XXXX",
"----$$$$                $$$$XXXX",
"&&&&####....&&&&####....XXXX####",
"&&&&####....&&&&####....XXXX####",
"&&&&####....&&&&####....XXXX####",
"&&&&####....&&&&####....XXXX####"
};
