/* XPM */
static char *_154f0ab55be47c8a73a62d7290cc37asYdkVideg47MRXtK[] = {
/* columns rows colors chars-per-pixel */
"32 32 9 1 ",
"  c #555555",
". c gray36",
"X c #656565",
"o c gray43",
"O c #717171",
"+ c gray46",
"@ c gray47",
"# c #18FFFF",
"$ c #84FFFF",
/* pixels */
"OOOOXXXXXXXXOOOOXXXX    XXXXOOOO",
"OOOOXXXXXXXXOOOOXXXX    XXXXOOOO",
"OOOOXXXXXXXXOOOOXXXX    XXXXOOOO",
"OOOOXXXXXXXXOOOOXXXX    XXXXOOOO",
"@@@@$$$$####oooooooo$$$$$$$$oooo",
"@@@@$$$$####oooooooo$$$$$$$$oooo",
"@@@@$$$$####oooooooo$$$$$$$$oooo",
"@@@@$$$$####oooooooo$$$$$$$$oooo",
"OOOOOOOOOOOOOOOO$$$$########OOOO",
"OOOOOOOOOOOOOOOO$$$$########OOOO",
"OOOOOOOOOOOOOOOO$$$$########OOOO",
"OOOOOOOOOOOOOOOO$$$$########OOOO",
"XXXXXXXX....XXXXOOOOoooooooooooo",
"XXXXXXXX....XXXXOOOOoooooooooooo",
"XXXXXXXX....XXXXOOOOoooooooooooo",
"XXXXXXXX....XXXXOOOOoooooooooooo",
"OOOOOOOOXXXXXXXXXXXXXXXXOOOOOOOO",
"OOOOOOOOXXXXXXXXXXXXXXXXOOOOOOOO",
"OOOOOOOOXXXXXXXXXXXXXXXXOOOOOOOO",
"OOOOOOOOXXXXXXXXXXXXXXXXOOOOOOOO",
"OOOO$$$$$$$$@@@@@@@@$$$$OOOOXXXX",
"OOOO$$$$$$$$@@@@@@@@$$$$OOOOXXXX",
"OOOO$$$$$$$$@@@@@@@@$$$$OOOOXXXX",
"OOOO$$$$$$$$@@@@@@@@$$$$OOOOXXXX",
"oooo############++++########OOOO",
"oooo############++++########OOOO",
"oooo############++++########OOOO",
"oooo############++++########OOOO",
"OOOOOOOOoooooooo@@@@@@@@@@@@@@@@",
"OOOOOOOOoooooooo@@@@@@@@@@@@@@@@",
"OOOOOOOOoooooooo@@@@@@@@@@@@@@@@",
"OOOOOOOOoooooooo@@@@@@@@@@@@@@@@"
};
