/* XPM */
static char *e092ac270bb2484faecb23d78b9faff9x9GhzyAlf1nZeb4k[] = {
/* columns rows colors chars-per-pixel */
"32 32 4 1 ",
"  c #5D4037",
". c #6D4C41",
"X c #795548",
"o c gray46",
/* pixels */
"XXXX    ....    XXXX    ........",
"XXXX    ....    XXXX    ........",
"XXXX    ....    XXXX    ........",
"XXXX    ....    XXXX    ........",
"    XXXX....oooo        ........",
"    XXXX....oooo        ........",
"    XXXX....oooo        ........",
"    XXXX....oooo        ........",
"........        ....        XXXX",
"........        ....        XXXX",
"........        ....        XXXX",
"........        ....        XXXX",
"....            ................",
"....            ................",
"....            ................",
"....            ................",
"    ....oooo....        ....    ",
"    ....oooo....        ....    ",
"    ....oooo....        ....    ",
"    ....oooo....        ....    ",
"....XXXXXXXX............XXXXoooo",
"....XXXXXXXX............XXXXoooo",
"....XXXXXXXX............XXXXoooo",
"....XXXXXXXX............XXXXoooo",
"............    ....XXXX........",
"............    ....XXXX........",
"............    ....XXXX........",
"............    ....XXXX........",
"....        oooo........    ....",
"....        oooo........    ....",
"....        oooo........    ....",
"....        oooo........    ...."
};
