/* XPM */
static char *_23fe9c775a346a0c8bc0c318c16b98dSmxp9YnN2Mh3bENf[] = {
/* columns rows colors chars-per-pixel */
"32 32 2 1 ",
"  c None",
". c #632F1D",
/* pixels */
"                                ",
"           ..                   ",
"                       ..       ",
"                                ",
"                                ",
"      . .    .                  ",
"      .           ... .         ",
"                  ....          ",
"              .   ....          ",
"             ... ..... .        ",
"    ..        .   . ..          ",
"   ...                    .     ",
"  ....           .        .     ",
"   .    .            .          ",
"           .        .   .       ",
"        . ..                    ",
"           . ..           ...   ",
"                         . .    ",
"                                ",
"                        .       ",
"                        .       ",
"                                ",
"                       .        ",
"                                ",
"                                ",
"                                ",
"                                ",
"                                ",
"                                ",
"                                ",
"                                ",
"                                "
};
