/* XPM */
static char *result[] = {
/* columns rows colors chars-per-pixel */
"32 32 5 1 ",
"  c #FF9519",
". c #D18023",
"X c #FFF423",
"o c white",
"O c None",
/* pixels */
"OOOOOOOOOOOOOOOOOOOOOOOOOOOOOOOO",
"OOOOOOOOOOOOOOOOOOOOOOOOOOOOOOOO",
"OOOOOOOOOOOOOOOOOOOOOOOOOOOOOOOO",
"OOOOOOOOOOOOOOOOOOOOOOOOOOOOOOOO",
"OOOOOOOOOOOOOOOOOOOOOOOOOOOOOOOO",
"OOOOOOOOOOOOOOOOOOOOOOOOOOOOOOOO",
"OOOOOOOOOOOOOOO....OOOOOOOOOOOOO",
"OOOOOOOOOOO.XXXXX  .OOOOOOOOOOOO",
"OOOOOOOOOO ooooXo X  OOOOOOOOOOO",
"OOOOOOOOOXooooooXoooX .OOOOOOOOO",
"OOOOOOOO XooooooooooXX.OOOOOOOOO",
"OOOOOOO.ooooooooooooX  .OOOOOOOO",
"OOOOOO. XooooooooooX X .OOOOOOOO",
"OOOOOO. oooooooXXoo X   OOOOOOOO",
"OOOOOO.XooooXoooXoXXXX  .OOOOOOO",
"OOOOOO.ooooooXXXoooXX   .OOOOOOO",
"OOOOOO. XXXooXoooooXXXooo.OOOOOO",
"OOOOOO.  XXoXXXXooooXXoooXOOOOOO",
"OOOOOOOXoooXXXXXXooooooooXOOOOOO",
"OOOOOOOXoXoo XXX ooXXXoXo  OOOOO",
"OOOOOOOXXXoXXooXX XX ooXXX OOOOO",
"OOOOOO. XXX XXoXoXXX XoXXX.OOOOO",
"OOOOOO. X Xo  XXoXXX XX   .OOOOO",
"OOOOOOO.  XX  XXXX   X X .OOOOOO",
"OOOOOOO.. XXX     .     .OOOOOOO",
"OOOOOOOOO.       ......OOOOOOOOO",
"OOOOOOOOOO.......OOOOOOOOOOOOOOO",
"OOOOOOOOOOOO...OOOOOOOOOOOOOOOOO",
"OOOOOOOOOOOOOOOOOOOOOOOOOOOOOOOO",
"OOOOOOOOOOOOOOOOOOOOOOOOOOOOOOOO",
"OOOOOOOOOOOOOOOOOOOOOOOOOOOOOOOO",
"OOOOOOOOOOOOOOOOOOOOOOOOOOOOOOOO"
};
