/* XPM */
static char *result[] = {
/* columns rows colors chars-per-pixel */
"32 32 7 1 ",
"  c #774D22",
". c #AF6B26",
"X c #FF9519",
"o c #D18023",
"O c #FFF423",
"+ c white",
"@ c None",
/* pixels */
"@@@@@@@@@@@@@@@@@@@@@@@@@@@@@@@@",
"@@@@@@@@@@@@@@@@@@@@@@@@@@@@@@@@",
"@@@@@@@@@@@@@@@@@@@@@@@@@@@@@@@@",
"@@@@@@@@@@@@@@@@@@@@@@@@@@@@@@@@",
"@@@@@@@@@@@@@@@@@@@@@@@@@@@@@@@@",
"@@@@@@@@@@@@@@@@@@@@@@@@@@@@@@@@",
"@@@@@@@@@@@@..  oooo.@@@@@@@@@@@",
"@@@@@@@@@@@oo..X+++Oo.@@@@@@@@@@",
"@@@@@@@@@ .XXXoO++++XXoo@@@@@@@@",
"@@@@@@@@ oXX+OX++++OO+Oo.@@@@@@@",
"@@@@@@@ o+++OOOO+OOOXOXo @@@@@@@",
"@@@@@@@oO+++OXoOXOOOOXoo @@@@@@@",
"@@@@@@.oO+++++XO+OXXoXOo.@@@@@@@",
"@@@@@@oOXO++O+XO+OooX+++X.@@@@@@",
"@@@@@@oOXOOOXXOOOO.oXOOOXo@@@@@@",
"@@@@@@ooXOOXOOOOXXoXXXOOXo @@@@@",
"@@@@@@.oOOXXXXOXOOOXXXOXo. @@@@@",
"@@@@@@.oXXXXoXXOXXXXoooXo @@@@@@",
"@@@@@@ oXXXXXXoXooo.oXXO+.@@@@@@",
"@@@@@@@oXXXXOXo.oo..oXO++O@@@@@@",
"@@@@@@@..oo.XXXoXOXoXOXO+X @@@@@",
"@@@@@@@@ oo.oXoXOXXoXXXXXX @@@@@",
"@@@@@@@@@..oooooooXoXXXXXo @@@@@",
"@@@@@@@@@@  .o.oooXoooXXo. @@@@@",
"@@@@@@@@@@@..o.oooo.....o.@@@@@@",
"@@@@@@@@@@@@  .o.o..ooo..@@@@@@@",
"@@@@@@@@@@@@@@ ..  @    @@@@@@@@",
"@@@@@@@@@@@@@@@@@@@@@@@@@@@@@@@@",
"@@@@@@@@@@@@@@@@@@@@@@@@@@@@@@@@",
"@@@@@@@@@@@@@@@@@@@@@@@@@@@@@@@@",
"@@@@@@@@@@@@@@@@@@@@@@@@@@@@@@@@",
"@@@@@@@@@@@@@@@@@@@@@@@@@@@@@@@@"
};
