/* XPM */
static char *_7d25d884e0247378e1b3a5b9de8a8falSpOF7TexfnPAnYB[] = {
/* columns rows colors chars-per-pixel */
"32 32 8 1 ",
"  c None",
". c #632F1D",
"X c #774D22",
"o c #AF6B26",
"O c #FF9519",
"+ c #D18023",
"@ c #FFF423",
"# c white",
/* pixels */
"                                ",
"                                ",
"                                ",
"           o+oX     Xoo         ",
"          +OOO+X   oOO@O        ",
"         oO#@OO++O++O@@Oo       ",
"         oO@@OO+O@O+OOOO+X      ",
"       o+O+@O+OOO+OoO+++@+      ",
"      X+#O+O+O@O+ooO#O++O+o     ",
"      oO@OO+o@@@O+OO#@Oo++oX    ",
"      o+OOOOO@@OO@@O@@@+o#@oX   ",
"      o+OO+o+OOOOO@OOOO+O@OOo   ",
"     o@OO+XX+OOOOOOOOO+OOOO+o   ",
"    o##@@O++@#OO+O+OO+oX++++o   ",
"   XO@@@O@OOO@OoXooOoXOoOOooX   ",
"   XO@@OOOOO+OoXO#OOOoO++Oo     ",
"   XOOOOOOO+XXX+@OOOO+oX++++    ",
"   .+OOOOO+OO+oOOOOO++OOoX+OX   ",
"   .XOOOO++OOO+OOOOOO##@@OooX   ",
"    .Xo+Oo++++o+OOO+@@@OO@OX.   ",
"     .Xoooo+O+Xoo+OOO@@OOO+o    ",
"      .oOOXooXooo+++OOOO@@@o.   ",
"      .X+++Xo+O+XoooOOOO@@+o.   ",
"      .o++oooO++XooXoOOOOOo..   ",
"       .oo+Xoo++oooXXo+++oX.    ",
"       ..X...o+o....XXoooX..    ",
"         .. .XoXX....XX.X..     ",
"             ...    .....       ",
"                                ",
"                                ",
"                                ",
"                                "
};
