/* XPM */
static char *_385a585f8e64b45b99c16bb3928c7b7LqnagLgNYRh6mfmJ[] = {
/* columns rows colors chars-per-pixel */
"32 32 6 1 ",
"  c None",
". c #632F1D",
"X c #774D22",
"o c #AF6B26",
"O c #FF9519",
"+ c #D18023",
/* pixels */
"                                ",
"                                ",
"          ...                   ",
"         .+XX...    .XX.        ",
"         .ooX.XXX.XXXoX.        ",
"         XXX.++oX.o+XXX..       ",
"       .+O+oXo++XXoooXX...      ",
"      .XOOO+oo+oX...oooX.X      ",
"      .X++++oXX++XX.+XXX..      ",
"      .Xoo+ooXXooooo+ooXXoX     ",
"     ...XooXoXoO+oXXooX.oXX.    ",
"     .X+XooX.XOOO+o+O+XooX..    ",
"    XoOO+oXXXo++O++OOOoooX..    ",
"   .oOOOOoX.XO+++oo+++oXX..     ",
"   X+OO+OooXX+oO+oo+++XXX.      ",
"   Xo++o+ooXXoo+oXXoooXX.oX     ",
"   .o+ooo++.XXoXOoooo++XoXX.    ",
"   .o+oXoooXXXXX++oXoooo++X.    ",
"   ..XooXXXoO+XXo+ooXoXoOO+.    ",
"    ..XX++o++oXoXXXXX+o++++X    ",
"     ..XooooooXXXo..oo++oooX    ",
"     ..ooooXXXXXXo..XoooooXX    ",
"      .XXXXXoo.XX...XXXXXXo.    ",
"      .XX..XXX.......XXXooX.    ",
"       ........... ..X.XX..     ",
"          ..... . .  .....  .   ",
"       ..  ...    ..            ",
"              ...      . .      ",
"              ... .             ",
"                                ",
"                                ",
"                                "
};
