/* XPM */
static char *_e9506b29bf3441ef0e0055657ecdca84TbwgdXflbJszG6i[] = {
/* columns rows colors chars-per-pixel */
"32 32 5 1 ",
"  c None",
". c #632F1D",
"X c #774D22",
"o c #AF6B26",
"O c #D18023",
/* pixels */
"                                ",
"                                ",
"          .X..                  ",
"         .XXX. ....  .XX        ",
"         ..X.. ...  ..XX.       ",
"       .X.....   ........X.     ",
"      .ooX....  ..XXX... ..     ",
"      .XX...oX...oooXX ....     ",
"     . .X...XXXoXXooOo...       ",
"    .  ... ..XOOoXoooXX.. .     ",
"   . ..X.   .oooXXooXoX. ..     ",
"    XoXX.  ..XXXoXXXXoo.  .     ",
"   XoOoXX.....XXX..XXoXX.X.     ",
"  .XoooooX.. .X....XX.X..XX..   ",
"  .ooXoXX..  ...XoX..X...X..    ",
"  .XXXXXX.. X.X.XXX.... ...     ",
"   ..X.X..XoOXX.XXX... ...X.    ",
"  . ..... XoOoo. ...  ..oOOoX   ",
"     ... .XoXXX.  .oX...XOOoo.  ",
"      XX...XXXXX  .oX.XoXOooX.  ",
"     .XX.......   ....XX.XXX..  ",
"      .XX  ...    ... ..XXX...  ",
"       .       ...  .  ..X...   ",
"          .XX   .    .X.....    ",
"          ...     .. XXX        ",
"           ..        ...   .    ",
"               .    .    .      ",
"               ..               ",
"                                ",
"                                ",
"                                ",
"                                "
};
