/* XPM */
static char *f87f08ac7c4749989bc7fd920a6b690f70miz7x6PiFu1H3B[] = {
/* columns rows colors chars-per-pixel */
"32 32 3 1 ",
"  c None",
". c #632F1D",
"X c #774D22",
/* pixels */
"                                ",
"                                ",
"          XX.   .               ",
"          ...  ..    ...        ",
"          ...      . ...        ",
"       X.        ..  ... ..     ",
"      .X..  ..   ... .   .      ",
"       ..  ......XXXX...        ",
"           .. .XXXXXXX..        ",
"        .    .XXXXXXXX.   ..    ",
"    XXX     ..X.XXXXXXX   .     ",
"   XXXX.  ..  X.XXXXXXX         ",
"  .XXXXX. . ...XXXXXX..  .      ",
"  .XXXX...    ...XX.X.. .X.     ",
"   ...X.     ......X... .X.     ",
"   .....   .. .  .....  ..      ",
"   .   .  .XX.    .     ..XX    ",
"          .XX..   .    .XXXXX   ",
"     ...  .XXX.  .X.  ..XXXXX   ",
"     ... ..X...  ...  ....XX.   ",
"     ....  ..     .  . ......   ",
"                   .   ......   ",
"                .    .X...      ",
"          ..      .  .X.        ",
"           .  .   .  ... . .    ",
"                                ",
"           .   .                ",
"                                ",
"                                ",
"                                ",
"                                ",
"                                "
};
