/* XPM */
static char *c2646f7ad66144c192ae117c9413b724RfRk6x6abNPlRKBl[] = {
/* columns rows colors chars-per-pixel */
"32 32 3 1 ",
"  c None",
". c #632F1D",
"X c #774D22",
/* pixels */
"                                ",
"                                ",
"          ..     .    ..        ",
"           .          ..        ",
"                     .   .      ",
"        ..                      ",
"      ...    .   .XX....        ",
"       .   .    .XXX....        ",
"                .XX.XX.         ",
"              ...X..XX.         ",
"    .X.   .  .X.......          ",
"   .XX.   .   .. ......   .     ",
"   ..X.                 ...     ",
"  .X....         ..  X. ..      ",
"   .    .     .  ..  ..         ",
"          XX.                   ",
"     .    .X..           ..X.   ",
"          .....   .    . .XXX   ",
"     ..    .  .   X.   . ....   ",
"      .     .        .   ...    ",
"                        ..  .   ",
"       .                 .      ",
"           .          ..        ",
"                      ..        ",
"                                ",
"               .                ",
"                                ",
"                                ",
"                                ",
"                                ",
"                                ",
"                                "
};
