/* XPM */
static char *e25bf17cd0ce48f19a1790c3eb1976adKrBlGiK8FGEMXRQ8[] = {
/* columns rows colors chars-per-pixel */
"32 32 3 1 ",
"  c #388E3C",
". c #43A047",
"X c #4CAF50",
/* pixels */
"XXXX....    ....XXXX    ........",
"XXXX....    ....XXXX    ........",
"XXXX....    ....XXXX    ........",
"XXXX....    ....XXXX    ........",
"....XXXX        ....    ....    ",
"....XXXX        ....    ....    ",
"....XXXX        ....    ....    ",
"....XXXX        ....    ....    ",
"        ........    ....    ....",
"        ........    ....    ....",
"        ........    ....    ....",
"        ........    ....    ....",
"    XXXX    ....                ",
"    XXXX    ....                ",
"    XXXX    ....                ",
"    XXXX    ....                ",
"....    XXXX    ........    ....",
"....    XXXX    ........    ....",
"....    XXXX    ........    ....",
"....    XXXX    ........    ....",
"    XXXXXXXX....        ....XXXX",
"    XXXXXXXX....        ....XXXX",
"    XXXXXXXX....        ....XXXX",
"    XXXXXXXX....        ....XXXX",
"....        ....    XXXX    ....",
"....        ....    XXXX    ....",
"....        ....    XXXX    ....",
"....        ....    XXXX    ....",
"    ........XXXX        ....    ",
"    ........XXXX        ....    ",
"    ........XXXX        ....    ",
"    ........XXXX        ....    "
};
