/* XPM */
static char *_1a6235286f244138f0e81cee2aadf28A97xV30LJyZKfiNx[] = {
/* columns rows colors chars-per-pixel */
"32 32 12 1 ",
"  c None",
". c #3A2F1E",
"X c #513D24",
"o c #523E24",
"O c #67502C",
"+ c #7E6237",
"@ c #7F6337",
"# c #957341",
"$ c #967441",
"% c #977441",
"& c #B48C50",
"* c #B58D50",
/* pixels */
"  $$#XX                  $$XXX  ",
"  $$#XX                  $$XXX  ",
"$$***++$$**************$$**@++OO",
"$$**&++$$**************$$**++@OO",
"OO+++OOXXOOOOOOOOOOOOOOXX++OOOXX",
"OO+++OOXXOOOOOOOOOOOOOOXX++OOOXX",
"  XXX..                  XX...  ",
"  XXX..                  XX...  ",
"  $$#XX                  $$oXX  ",
"  $$#XX                  $%XXX  ",
"$$**&++$$*********$$%**$$**@++OO",
"$$***++$$*********$$%**$$**@+@OO",
"OO+++OOXXOOOOOOOOOOOOXXXX++OOOXX",
"OO+++OOXXOOOOOOOOOOOOXXXX++OOOXX",
"  XXX..                  XX...  ",
"  XXX..                  XX...  ",
"  $$$XX                  $$oXX  ",
"  $$$XX                  $$XXX  ",
"$$**&++$$*********$$%**$$**@++OO",
"$$**&++$$*********$$%**$$**@+@OO",
"OO+++OOXXOOOOOOOOOOOOXXXX++OOOXX",
"OO+++OOXXOOOOOOOOOOOOXXXX++OOOXX",
"  XXX..                  XX...  ",
"  XXX..                  XX...  ",
"  $$#XX                  $$oXX  ",
"  $$#XX                  $$XXX  ",
"$$***++$$**************$$**@++OO",
"$$**&++$$**************$$**@+@OO",
"OO+++OOXXOOOOOOOOOOOOOOXX++OOOXX",
"OO+++OOXXOOOOOOOOOOOOOOXX++OOOXX",
"  XXX..                  XX...  ",
"  XXX..                  XX...  "
};
