/* XPM */
static char *_84d4d8cbea6426bc39345288ea6cc7aiPrAwhe2ggecM9hL[] = {
/* columns rows colors chars-per-pixel */
"32 32 42 1 ",
"  c #241808",
". c #281C0B",
"X c #2A1D0D",
"o c #2B1E0D",
"O c #2C1E0E",
"+ c #2F1F0F",
"@ c #2F200D",
"# c #332411",
"$ c #342512",
"% c #3F2A15",
"& c #422A12",
"* c #6D432A",
"= c #6F452C",
"- c #6A4030",
"; c #774235",
": c #7A4E33",
"> c #805334",
", c #815339",
"< c #83553B",
"1 c #8F5E3E",
"2 c #905E43",
"3 c #965F40",
"4 c #9C6346",
"5 c #9C694C",
"6 c #9C725C",
"7 c #A26A47",
"8 c #AC765A",
"9 c #AA7D66",
"0 c #B37B62",
"q c #B57B67",
"w c #AD806D",
"e c #B4846D",
"r c #B6896C",
"t c #BE886C",
"y c #B78272",
"u c #BB8972",
"i c #BD8B72",
"p c #BD8E72",
"a c #BD8E74",
"s c #523D89",
"d c #C69680",
"f c white",
/* pixels */
"@@@@oooo++++....    . . oooooo.O",
"@@@@oooo++++....    .  ..oooo.O.",
"@@@@oooo++++....    ..o o+ooXXXX",
"@@@@oooo++++....     .  oOooXXXX",
"oooooooooooo####&&&&%%%%OOOOX...",
"oooooooooooo####&&&&%%%%OOOO....",
"oooooooooooo####&&&&%%%%OOOX....",
"oooooooooooo####&&&&%%%%OO.O....",
"oooorrrrppppddddiiiuaaaa8888$$$$",
"oooorrrrppppddddiiiuaaaa8888$$$$",
"oooorrrrppppddddiiuaaaaa8888$$$$",
"oooorrrrppppddddiiuaaaaa8888$$$$",
"9999eeee9999wwww6666uuuu55555555",
"9999eeee9999wwww6666uuuu55555555",
"9999eeee9999wwww6666uuuu55555555",
"9999eeee9999wwww6666uuuu55555555",
"eeeeffffssssqqqquuuussssffff9999",
"eeeeffffssssqqqquuuussssffff9999",
"eeeeffffssssqqqquuuussssffff9999",
"eeeeffffssssqqqquuuussssffff9999",
"44440000yyyy--------tttt7777>>>>",
"44440000yyyy--------tttt7777>>>>",
"44440000yyyy--------tttt7777>>>>",
"44440000yyyy--------tttt7777>>>>",
"22223333;;;;;;;;;;;;;;;;1111,,,,",
"22223333;;;;;;;;;;;;;;;;1111,,,,",
"22223333;;;;;;;;;;;;;;;;1111,,,,",
"22223333;;;;;;;;;;;;;;;;1111,,,,",
"====****,,,,,,,,::::<<<<<<<<::::",
"====****,,,,,,,,::::<<<<<<<<::::",
"====****,,,,,,,,::::<<<<<<<<::::",
"====****,,,,,,,,::::<<<<<<<<::::"
};
