/* XPM */
static char *cdb6a78486754c418ffadd31781434fcwNP5FQy7T2GJsy7W[] = {
/* columns rows colors chars-per-pixel */
"32 32 6 1 ",
"  c #555555",
". c #656565",
"X c gray40",
"o c gray43",
"O c #717171",
"+ c gray47",
/* pixels */
"OOOO........OOOO....    ....OOOO",
"OOOO........OOOO....    ....OOOO",
"OOOO........OOOO....    ....OOOO",
"OOOO........OOOO....    ....OOOO",
"++++++++OOOOoooooooooooooooooooo",
"++++++++OOOOoooooooooooooooooooo",
"++++++++OOOOoooooooooooooooooooo",
"++++++++OOOOoooooooooooooooooooo",
"OOOOOOOOOOOOOOOO............OOOO",
"OOOOOOOOOOOOOOOO............OOOO",
"OOOOOOOOOOOOOOOO............OOOO",
"OOOOOOOOOOOOOOOO............OOOO",
"........    ....OOOOoooooooooooo",
"........    ....OOOOoooooooooooo",
"........    ....OOOOoooooooooooo",
"........    ....OOOOoooooooooooo",
"OOOOOOOO................OOOOOOOO",
"OOOOOOOO................OOOOOOOO",
"OOOOOOOO................OOOOOOOO",
"OOOOOOOO................OOOOOOOO",
"OOOO++++++++++++++++++++OOOO....",
"OOOO++++++++++++++++++++OOOO....",
"OOOO++++++++++++++++++++OOOO....",
"OOOO++++++++++++++++++++OOOO....",
"OOooooooXXXX........OOOOOOOOOOOO",
"ooooooooXXXX........OOOOOOOOOOOO",
"ooooooooXX..........OOOOOOOOOOOO",
"oooooooo............OOOOOOOOOOOO",
"OOOOOOOOoooooooo++++++++++++++++",
"OOOOOOOOoooooooo++++++++++++++++",
"OOOOOOOOoooooooo++++++++++++++++",
"OOOOOOOOoooooooo++++++++++++++++"
};
