/* XPM */
static char *result[] = {
/* columns rows colors chars-per-pixel */
"201 35 2 1 ",
"  c white",
". c None",
/* pixels */
"           ..........           .......                       ...........................................................          ..........           ...           ...           ..........          .",
"           ..........           .......                       .......           .....           .........................          ..........           ...           ...           ..........          .",
"           ..........           .......                       .......           .....           .........................          ..........           ...           ...           ..........          .",
"           ..........           .......                       .......           .....           .........................          ..........           ...           ...           ..........          .",
"           ..........           ...                               ...           .....           .........................          ..........           ...           ...               ......          .",
"           ..........           ...                               ...           .....           .........................          ..........           ...           ...               ......          .",
"           ..........           ...                               ...           .....           .........................          ..........           ...           ...               ......          .",
"           ..........           ...                               ...           .....           .........................          ..........           ...           ...               ......          .",
"              ....              ...                               ...           .....           .........................          ..........           ...           ...                   ..          .",
"              ....              ...          ..........           ...           .....           .........................          ..........           ...           ...                   ..          .",
"              ....              ...          ..........           ...           .....           .........................          ..........           ...           ...                   ..          .",
"                                ...          ..........           ...           .....           .........................          ..      ..           ...           ...                   ..          .",
"                                ...          ..........           ...           .....           .........................          ..      ..           ...           ...                               .",
"                                ...          ..........           ...           .....           .........................          ..      ..           ...           ...                               .",
"                                ...          ..........           ...           .....           .........................           .       .           ...           ...                               .",
"....                        .......          ..........           ...           .....           .........................                               ...           ...                               .",
"....                        .......          ..........           ...           .....           .........................                               ...           ...                               .",
"....                        .......          ..........           ...           .....           .........................                               ...           ...                               .",
".......                  ..........          ..........           ...           .....           .........................                               ...           ...                               .",
".......                  ..........          ..........           ...           .....           .........................                               ...           ...                               .",
".......                  ..........          ..........           ...           .....           .........................                               ...           ...                               .",
"........                 ..........          ..........           ...           .....           .........................                               ...           ...                               .",
"..........            .............          ..........           ...           .....           .........................                               ...           ...           .                   .",
"..........            .............          ..........           ...           .....           .........................                               ...           ...           .                   .",
"..........            .............          ..........           ...           .....           .........................                               ...           ...           .                   .",
"..........            .............                               ...           .....           .........................                               ...           ...           ..                  .",
"..........            .............                               ...                           .........................              ..               ...           ...           ......              .",
"..........            .............                               ...                           .........................              ..               ...           ...           ......              .",
"..........            .............                               ...                           .........................              ..               ...           ...           ......              .",
"..........            .............                               ...                           .........................              ..               ...           ...           ......              .",
"..........            .................                       .......                           .........................          ..........           ...           ...           ..........          .",
"..........            .................                       ...........                   .............................          ..........           ...           ...           ..........          .",
"..........            .................                       ...........                   .............................          ..........           ...           ...           ..........          .",
"..........            .................                       ...........                   .............................          ..........           ...           ...           ..........          .",
".........................................................................                   ............................................................................................................."
};
